<svg xmlns="http://www.w3.org/2000/svg" width="70" height="70" viewBox="0 0 70 70">
  <defs>
    <style>
      .cls-1 {
        fill: #8d8d98;
        fill-rule: evenodd;
      }
    </style>
  </defs>
  <path id="形狀_36" data-name="形狀 36" class="cls-1" d="M823.21,2525a6.908,6.908,0,0,1-3.356-1.55,5.872,5.872,0,0,1-1.861-6.18,5.588,5.588,0,0,1,4.971-4.42,63.527,63.527,0,0,1,6.479-.15c1-.01,2.006-0.04,3,0.02a6.025,6.025,0,0,1,5.331,3.56c0.081,0.17.159,0.33,0.247,0.51,3.582,0,7.156.02,10.73-.01a1.987,1.987,0,0,0,1.924-1.94c0.016-.23.008-0.46,0.008-0.69q0-11.8,0-23.62c0-1.83.73-2.57,2.563-2.56,1.456,0.02,2.922-.04,4.365.11a5.959,5.959,0,0,1,5.268,5.04,2.232,2.232,0,0,0,.108.32v13.8a1.24,1.24,0,0,0-.1.25,6.011,6.011,0,0,1-5.48,5.14,22.851,22.851,0,0,1-2.624.02c0,0.69.029,1.26-.008,1.82a9.028,9.028,0,0,1-.227,1.82,6.082,6.082,0,0,1-6.167,4.6q-4.715.03-9.428,0a1.08,1.08,0,0,0-1.327.79,3.613,3.613,0,0,1-.706,1.07,6.622,6.622,0,0,1-3.874,2.25H823.21ZM793,2493.44a7.351,7.351,0,0,1,1.37-3.15,6.145,6.145,0,0,1,4.821-2.31c1.321-.03,2.642-0.02,3.963,0a2.026,2.026,0,0,1,2.145,2.15q0.015,10.2,0,20.41a2.022,2.022,0,0,1-2.145,2.15,47.508,47.508,0,0,1-4.776-.1,5.938,5.938,0,0,1-5.27-5.03,1.881,1.881,0,0,0-.108-0.32v-13.8Zm65.835-9.46a35.731,35.731,0,0,0-8.213.21,22.639,22.639,0,0,0-10.437-17.33,22.308,22.308,0,0,0-13.22-3.59c-9.5.27-20.573,8.08-21.609,20.8-1.337-.07-2.668-0.16-4-0.19s-2.681-.01-4.158-0.01a30.881,30.881,0,0,1,47.068-24.1C853.08,2465.39,857.846,2473.55,858.831,2483.98Z" transform="translate(-793 -2455)"/>
</svg>
