<svg xmlns="http://www.w3.org/2000/svg" width="70" height="70" viewBox="0 0 70 70">
  <defs>
    <style>
      .cls-1 {
        fill: #8d8d98;
        fill-rule: evenodd;
      }
    </style>
  </defs>
  <path id="形狀_35" data-name="形狀 35" class="cls-1" d="M565,2520.34v-40.73a3.191,3.191,0,0,0,.119-0.32,5.388,5.388,0,0,1,5.522-4.35q26.271-.015,52.541,0a5.424,5.424,0,0,1,5.654,5.7c0.007,2.82,0,5.64,0,8.47,0,0.19-.023.39-0.038,0.64h-0.785c-2.938,0-5.876-.03-8.814,0a10.247,10.247,0,0,0-.184,20.49c3,0.05,6.012.01,9.018,0.01h0.724a1.471,1.471,0,0,1,.074.26c0,3.12.073,6.24-.031,9.36a5.1,5.1,0,0,1-3.084,4.57,13.313,13.313,0,0,1-1.526.55H569.647a16.36,16.36,0,0,1-2.275-.99A5.644,5.644,0,0,1,565,2520.34Zm37.771-61.53c-0.91,0-1.706-.01-2.5.01a6.8,6.8,0,0,0-6.7,6.79c-0.021,1.71,0,3.42,0,5.23h-0.759c-5.942,0-11.884-.01-17.825.01a0.841,0.841,0,0,1-.966-0.69c-0.291-.93-0.67-1.83-0.984-2.76a2.662,2.662,0,0,1,1.652-3.53q11.907-4.365,23.827-8.69a2.7,2.7,0,0,1,3.521,1.6C602.29,2457.41,602.5,2458.06,602.771,2458.81Zm23.094,47.33c-2.255,0-4.511.04-6.765-.01a6.131,6.131,0,0,1,.075-12.26c4.555-.06,9.11-0.03,13.666-0.01a2.038,2.038,0,0,1,2.144,2.15c0.012,2.67.012,5.33,0,8a2.026,2.026,0,0,1-2.151,2.14c-2.323.01-4.646,0-6.969,0v-0.01Zm-6.627-4.1a2.028,2.028,0,0,0,2.079-1.98,2.049,2.049,0,1,0-4.1-.07A2.038,2.038,0,0,0,619.238,2502.04Zm-21.56-31.26c0-1.82-.045-3.6.015-5.37a2.643,2.643,0,0,1,2.741-2.5c3.394-.01,6.788,0,10.182,0,2.642,0,5.285-.01,7.927,0a2.744,2.744,0,0,1,3.049,3.03c0,1.55,0,3.1-.006,4.65a1.336,1.336,0,0,1-.038.19h-23.87Z" transform="translate(-565 -2455)"/>
</svg>
