<svg xmlns="http://www.w3.org/2000/svg" width="70" height="70" viewBox="0 0 70 70">
  <defs>
    <style>
      .cls-1 {
        fill: #8d8d98;
        fill-rule: evenodd;
      }
    </style>
  </defs>
  <path id="形狀_34" data-name="形狀 34" class="cls-1" d="M368.855,2524.99h-1.778a9.35,9.35,0,0,1-4.851-3.07q-11.041-11.1-22.154-22.15a9.346,9.346,0,0,1-3.072-4.85v-1.77a7.893,7.893,0,0,1,2.14-3.96q16.037-15.99,32.039-32.02a7.042,7.042,0,0,1,5.262-2.17c7.9,0.03,15.808.01,23.712,0.01a6.452,6.452,0,0,1,6.845,6.85c0,7.9-.016,15.8.011,23.7a7.151,7.151,0,0,1-2.216,5.32q-15.576,15.525-31.112,31.11A9.126,9.126,0,0,1,368.855,2524.99Zm3.093-32.94H374.2c3.619,0,7.239.01,10.858,0a2.056,2.056,0,1,0-.1-4.1H359.074a3.806,3.806,0,0,0-.478.02,2.053,2.053,0,0,0-1.724,2.66,2.093,2.093,0,0,0,2.168,1.42h12.908Zm0.091,3.95a6.43,6.43,0,1,0,6.393,6.45A6.412,6.412,0,0,0,372.039,2496Zm-0.045-11.99a6.435,6.435,0,1,0-6.428-6.42A6.422,6.422,0,0,0,371.994,2484.01Zm21.969-13.93a2.059,2.059,0,0,0,2.057-2.04,2.1,2.1,0,0,0-2.051-2.05A2.045,2.045,0,0,0,393.963,2470.08Zm-19.633,32.36a2.331,2.331,0,1,1-4.662-.03A2.331,2.331,0,0,1,374.33,2502.44Zm-2.342-27.2a2.328,2.328,0,0,1,2.342,2.33,2.332,2.332,0,0,1-4.663.02A2.332,2.332,0,0,1,371.988,2475.24Z" transform="translate(-337 -2455)"/>
</svg>
