<svg xmlns="http://www.w3.org/2000/svg" width="70.031" height="70" viewBox="0 0 70.031 70">
  <defs>
    <style>
      .cls-1 {
        fill: #8d8d98;
        fill-rule: evenodd;
      }
    </style>
  </defs>
  <path id="形狀_33" data-name="形狀 33" class="cls-1" d="M177.119,2485.45c0-.01,0-0.01,0-0.01l-28.569-28.55a6.444,6.444,0,0,0-9.118,0l-28.554,28.54-0.029.03a6.442,6.442,0,0,0,4.291,10.98h1.337v21.02a7.55,7.55,0,0,0,7.546,7.54H135.2a2.053,2.053,0,0,0,2.052-2.05v-16.48a3.449,3.449,0,0,1,3.443-3.44h6.592a3.449,3.449,0,0,1,3.443,3.44v16.48a2.053,2.053,0,0,0,2.052,2.05h11.177a7.55,7.55,0,0,0,7.546-7.54v-21.02h1.056A6.437,6.437,0,0,0,177.119,2485.45Z" transform="translate(-108.969 -2455)"/>
</svg>
