<svg xmlns="http://www.w3.org/2000/svg" width="70" height="60" viewBox="0 0 70 60">
  <defs>
    <style>
      .cls-1 {
        fill: #8d8d98;
        fill-rule: evenodd;
      }
    </style>
  </defs>
  <path id="形狀_37" data-name="形狀 37" class="cls-1" d="M1042.97,2519.98c-4.27,0-8.54.02-12.82,0a8.877,8.877,0,0,1-9.01-7.58,15.315,15.315,0,0,1,1.44-8.73c3.26-6.98,8.8-10.77,16.51-11.22a77.74,77.74,0,0,1,8.77.07,18.627,18.627,0,0,1,16.86,15.54,12.323,12.323,0,0,1-.2,5.79,9,9,0,0,1-8.66,6.13C1051.57,2520,1047.27,2519.98,1042.97,2519.98Zm0.51-29.19a15.406,15.406,0,1,1,14.97-16.2A15.462,15.462,0,0,1,1043.48,2490.79Zm20.87,29.14a11.994,11.994,0,0,0,3.58-6.23,18.45,18.45,0,0,0-.84-9.57,21.141,21.141,0,0,0-4.11-7.21,10.682,10.682,0,0,1,4.43-1.15,86.769,86.769,0,0,1,10.58.14c6.45,0.69,11.94,6.36,12.84,12.77a9.828,9.828,0,0,1-1.43,7.47,8.731,8.731,0,0,1-7.35,3.82c-5.75.04-11.49,0.01-17.24,0.01C1064.72,2519.98,1064.62,2519.96,1064.35,2519.93Zm20.18-38.39a12.208,12.208,0,0,1-24.31,1.86,2.053,2.053,0,0,1,.1-0.95,18.587,18.587,0,0,0,1.36-6.19,1.954,1.954,0,0,1,.32-0.9,12.2,12.2,0,0,1,22.24,4.07C1084.38,2480.13,1084.44,2480.84,1084.53,2481.54Z" transform="translate(-1021 -2460)"/>
</svg>
