<svg xmlns="http://www.w3.org/2000/svg" width="70" height="50" viewBox="0 0 70 50">
  <defs>
    <style>
      .cls-1 {
        fill: #fff;
        fill-rule: evenodd;
      }
    </style>
  </defs>
  <path id="形狀_7" data-name="形狀 7" class="cls-1" d="M1119.92,82.994q-12.9,0-25.8,0a8.9,8.9,0,0,1-9.02-7.535,11.114,11.114,0,0,1-.1-1.733q0-15.767,0-31.534A8.888,8.888,0,0,1,1094.28,33q25.725-.008,51.44,0a8.881,8.881,0,0,1,9.27,9.193q0.015,15.805,0,31.61a8.886,8.886,0,0,1-9.28,9.189Q1132.81,83,1119.92,82.994Zm-30.04-36.666v0.906c0,8.8.06,17.593-.03,26.389a4.354,4.354,0,0,0,4.59,4.56c17.04-.058,34.08-0.029,51.12-0.03,2.95,0,4.55-1.572,4.55-4.467V47.145c0-.259-0.03-0.518-0.04-0.861-0.33.184-.55,0.3-0.77,0.426q-11.8,7-23.61,14a10.473,10.473,0,0,1-11.28.053c-6.01-3.517-12.01-7.071-18.02-10.608C1094.28,48.908,1092.16,47.666,1089.88,46.328Zm60.07-5.5a2.364,2.364,0,0,0-.11-0.419c-0.66-1.7-2.1-2.573-4.24-2.573q-25.605,0-51.21,0c-0.23,0-.46,0-0.69.013a4.007,4.007,0,0,0-3.44,2.277,0.745,0.745,0,0,0,.37,1.188c8.61,5.025,17.22,10.047,25.78,15.14a6.206,6.206,0,0,0,6.93.031c7.48-4.444,14.99-8.823,22.49-13.228Q1147.9,42.05,1149.95,40.83Z" transform="translate(-1085 -33)"/>
</svg>
