<svg xmlns="http://www.w3.org/2000/svg" width="48" height="47.969" viewBox="0 0 48 47.969">
  <defs>
    <style>
      .cls-1 {
        fill: #fff;
        fill-rule: evenodd;
      }
    </style>
  </defs>
  <path id="形狀_6" data-name="形狀 6" class="cls-1" d="M86.425,691.023q0,10.827,0,21.654A2.136,2.136,0,0,1,85.12,714.8a2.191,2.191,0,0,1-2.457-.447q-7.053-6.063-14.129-12.1a1.722,1.722,0,0,0-.966-0.34c-1.359-.071-2.741.048-4.077-0.151A6.52,6.52,0,0,1,58,695.2c0.016-2.792.022-5.583,0-8.375a6.637,6.637,0,0,1,6.61-6.721c0.818,0,1.641-.056,2.453.015A2.456,2.456,0,0,0,69,679.392q6.855-5.927,13.746-11.813a2.2,2.2,0,0,1,3.678,1.722c-0.008,3.2-.021,6.4-0.025,9.6q-0.007,6.06,0,12.121h0.025ZM82,674.045c-0.178.12-.272,0.171-0.352,0.239-3.4,2.908-6.8,5.811-10.18,8.741a1.291,1.291,0,0,0-.334.882c-0.021,4.72-.01,9.44-0.022,14.159a1.223,1.223,0,0,0,.468,1.049c3.324,2.82,6.631,5.662,9.944,8.494,0.126,0.108.273,0.192,0.476,0.332v-33.9ZM66.734,684.464c-0.685,0-1.294,0-1.9,0a4.438,4.438,0,0,0-.476.012,2.069,2.069,0,0,0-1.907,2.042q-0.046,4.483,0,8.969a1.98,1.98,0,0,0,1.711,1.991,21.437,21.437,0,0,0,2.576.021V684.464ZM106,690.587c-0.166,5.565-2.095,9.769-6.129,12.931a2.181,2.181,0,1,1-2.677-3.433,10.828,10.828,0,0,0,4.207-7,11.2,11.2,0,0,0-4.124-11.09,2.315,2.315,0,0,1-1.02-2.162,2.172,2.172,0,0,1,3.578-1.377,15.129,15.129,0,0,1,5.744,9.05C105.832,688.673,105.907,689.879,106,690.587ZM97.3,691a7,7,0,0,1-2.52,5.431,2.19,2.19,0,1,1-2.862-3.29,2.757,2.757,0,0,0,.006-4.28,2.193,2.193,0,1,1,2.906-3.249A7,7,0,0,1,97.3,691Z" transform="translate(-58 -667.031)"/>
</svg>
