<?xml version="1.0" encoding="utf-8"?>
<!-- Generator: Adobe Illustrator 23.0.3, SVG Export Plug-In . SVG Version: 6.00 Build 0)  -->
<svg version="1.1" id="圖層_1" xmlns="http://www.w3.org/2000/svg" xmlns:xlink="http://www.w3.org/1999/xlink" x="0px" y="0px"
	 viewBox="0 0 41.9 41.9" style="enable-background:new 0 0 41.9 41.9;" xml:space="preserve">
<style type="text/css">
	.st0{fill:url(#SVGID_1_);}
	.st1{fill:url(#SVGID_2_);}
	.st2{fill:url(#SVGID_3_);}
	.st3{fill:url(#SVGID_4_);}
</style>
<g>
	
		<linearGradient id="SVGID_1_" gradientUnits="userSpaceOnUse" x1="20.93" y1="0.2149" x2="20.93" y2="42.2797" gradientTransform="matrix(1 0 0 -1 0 44)">
		<stop  offset="0" style="stop-color:#C48C26"/>
		<stop  offset="1" style="stop-color:#F2BE42"/>
	</linearGradient>
	<path class="st0" d="M20.9,8.7c-5.8,0-10.5,4.7-10.5,10.5c0,5.8,4.7,10.5,10.5,10.5S31.4,25,31.4,19.2S26.7,8.7,20.9,8.7z
		 M20.7,17.9h0.4c1.8,0,3.3,1.5,3.3,3.3c0,1.4-0.9,2.6-2.2,3.1v0.6c0,0.7-0.6,1.3-1.3,1.3s-1.3-0.6-1.3-1.3v-0.4h-0.9
		c-0.7,0-1.3-0.6-1.3-1.3s0.6-1.3,1.3-1.3h2.4c0.4,0,0.6-0.3,0.6-0.6c0-0.4-0.3-0.6-0.6-0.6h-0.4c-1.8,0-3.3-1.5-3.3-3.3
		c0-1.4,0.9-2.6,2.2-3.1v-0.6c0-0.7,0.6-1.3,1.3-1.3s1.3,0.6,1.3,1.3V14h0.9c0.7,0,1.3,0.6,1.3,1.3s-0.6,1.3-1.3,1.3h-2.4
		c-0.4,0-0.6,0.3-0.6,0.6S20.4,17.9,20.7,17.9z"/>
	
		<linearGradient id="SVGID_2_" gradientUnits="userSpaceOnUse" x1="29.4687" y1="0.2149" x2="29.4687" y2="42.2797" gradientTransform="matrix(1 0 0 -1 0 44)">
		<stop  offset="0" style="stop-color:#C48C26"/>
		<stop  offset="1" style="stop-color:#F2BE42"/>
	</linearGradient>
	<path class="st1" d="M38.8,17.9c-0.7,0-1.3,0.6-1.3,1.3c0,7.8-5.5,14.4-12.7,16.1v-1.6c0-1.2-1.4-1.8-2.2-0.9l-3.4,3.4
		c-0.5,0.5-0.5,1.3,0,1.8l3.4,3.4c0.8,0.8,2.2,0.3,2.2-0.9v-2.5c8.7-1.8,15.4-9.6,15.4-18.8C40.2,18.5,39.6,17.9,38.8,17.9
		L38.8,17.9z"/>
	
		<linearGradient id="SVGID_3_" gradientUnits="userSpaceOnUse" x1="8.138" y1="0.2149" x2="8.138" y2="42.2797" gradientTransform="matrix(1 0 0 -1 0 44)">
		<stop  offset="0" style="stop-color:#C48C26"/>
		<stop  offset="1" style="stop-color:#F2BE42"/>
	</linearGradient>
	<path class="st2" d="M15.4,34.9C8.8,32.5,4.3,26.3,4.3,19.2c0-2,0.4-3.9,1-5.7l1.6,0.9c1,0.6,2.2-0.3,1.9-1.5L7.5,8
		C7.3,7.3,6.6,6.9,5.9,7L1,8.4c-1.1,0.3-1.3,1.8-0.3,2.4l2.4,1.4c-0.9,2.2-1.4,4.6-1.4,7.1c0,8.1,5.2,15.4,12.8,18.1
		c0.7,0.2,1.4-0.1,1.7-0.8C16.4,35.8,16.1,35.1,15.4,34.9z"/>
	
		<linearGradient id="SVGID_4_" gradientUnits="userSpaceOnUse" x1="25.2138" y1="0.2149" x2="25.2138" y2="42.2797" gradientTransform="matrix(1 0 0 -1 0 44)">
		<stop  offset="0" style="stop-color:#C48C26"/>
		<stop  offset="1" style="stop-color:#F2BE42"/>
	</linearGradient>
	<path class="st3" d="M40.2,8.6l-2.8,0.8C34,3.7,27.7,0,20.9,0c-4.4,0-8.5,1.4-11.9,4.2C8.5,4.6,8.4,5.4,8.9,6
		c0.5,0.6,1.3,0.7,1.8,0.2c2.9-2.3,6.5-3.6,10.2-3.6c5.6,0,10.8,2.9,13.8,7.4l-1.5,0.4c-1.1,0.3-1.3,1.8-0.3,2.4l4.4,2.6
		c0.3,0.2,0.7,0.2,1,0.1s0.6-0.3,0.8-0.6l2.6-4.4C42.3,9.5,41.3,8.3,40.2,8.6L40.2,8.6z"/>
</g>
</svg>
